<svg width="86" height="88" viewBox="0 0 86 88" fill="none" xmlns="http://www.w3.org/2000/svg">
<path d="M85.3755 3.80001L83.5755 18.4C78.2422 18 74.3755 19.0667 71.9755 21.6C69.5755 24.1333 68.1088 27.5333 67.5755 31.8C67.0422 36.0667 66.9088 40.6667 67.1755 45.6H85.3755V87.8H51.1755V37.6C51.1755 25.3333 54.3088 16.1333 60.5755 10C66.7088 3.86668 74.9755 1.80001 85.3755 3.80001ZM34.5755 3.80001L32.7755 18.4C27.4422 18 23.5755 19.0667 21.1755 21.6C18.7755 24.1333 17.3088 27.5333 16.7755 31.8C16.2421 36.0667 16.1088 40.6667 16.3755 45.6H34.5755V87.8H0.375481V37.6C0.375481 25.3333 3.50881 16.1333 9.77548 10C15.9088 3.86668 24.1755 1.80001 34.5755 3.80001Z" fill="#311707" fill-opacity="0.1"/>
</svg>
