<svg width="35" height="31" viewBox="0 0 35 31" fill="none" xmlns="http://www.w3.org/2000/svg">
<path d="M10.9551 30.2511C24.0928 30.2511 31.2806 18.6835 31.2806 8.65525C31.2806 8.33005 31.2738 7.99763 31.2602 7.67243C32.6585 6.59805 33.8651 5.26727 34.8235 3.74263C33.5213 4.35822 32.1387 4.76026 30.7229 4.93501C32.2136 3.98561 33.3298 2.49415 33.8645 0.737103C32.4621 1.62015 30.9285 2.24307 29.3293 2.57915C28.2518 1.3627 26.8272 0.557267 25.2756 0.287374C23.7241 0.0174821 22.1321 0.298165 20.7457 1.08603C19.3594 1.87389 18.2559 3.12505 17.606 4.64607C16.956 6.16708 16.7957 7.87324 17.1499 9.50075C14.3103 9.34935 11.5323 8.56559 8.99605 7.20028C6.4598 5.83497 4.22191 3.91859 2.42744 1.57538C1.5154 3.24613 1.23632 5.22316 1.64691 7.10468C2.0575 8.9862 3.12695 10.631 4.63792 11.7049C3.50358 11.6666 2.39408 11.3421 1.4011 10.7582V10.8521C1.40009 12.6054 1.97057 14.305 3.01559 15.662C4.0606 17.0189 5.51564 17.9495 7.13338 18.2955C6.08259 18.6009 4.97974 18.6455 3.91016 18.4256C4.36666 19.9334 5.25483 21.2522 6.45073 22.198C7.64662 23.1437 9.09057 23.6691 10.581 23.7009C8.05065 25.8128 4.92488 26.9583 1.70717 26.9529C1.13653 26.952 0.566461 26.9148 0 26.8416C3.26885 29.0698 7.0714 30.2533 10.9551 30.2511Z" fill="white"/>
</svg>
